# Blender v2.78 (sub 0) OBJ File: '7.blend'
# www.blender.org
mtllib Storage_03.mtl
o Storage_Cabinet_03_Cube.042
v -4.968674 0.007899 3.658674
v -4.968674 0.007899 -3.658674
v 4.968674 0.007899 3.658674
v 4.968674 0.007899 -3.658674
v -4.968674 4.929942 3.658674
v -4.968674 4.929942 -3.658674
v 4.968674 4.929942 -3.658674
v 4.968674 4.929942 3.658674
v 4.722593 4.712552 3.658674
v 4.722593 0.225288 3.658674
v -4.722593 0.225288 3.658674
v -4.722593 4.712552 3.658674
v 4.722593 4.712552 -3.461131
v 4.722593 0.225288 -3.461131
v -4.722593 0.225288 -3.461131
v -4.722593 4.712552 -3.461131
v -4.650796 0.320789 3.654169
v -4.650796 4.666984 3.654169
v 4.650796 4.666984 3.654169
v 4.650796 0.320789 3.654169
v -4.650796 0.320789 -3.371593
v -4.650796 4.666984 -3.371593
v 4.650796 4.666984 -3.371593
v 4.650796 0.320789 -3.371593
v -1.550265 4.666984 3.654169
v 1.550265 4.666984 3.654169
v 1.550265 0.320789 3.654169
v -1.550265 0.320789 3.654169
v 1.550265 4.666984 -3.371593
v -1.550265 4.666984 -3.371593
v 1.550265 0.320789 -3.371593
v -1.550265 0.320789 -3.371593
v -4.650796 3.843839 3.654169
v 4.650796 3.843839 3.654169
v -4.650796 3.843839 -3.371593
v 4.650796 3.843839 -3.371593
v -1.550265 3.843839 3.654169
v 1.550265 3.843839 3.654169
v 1.550265 3.843839 -3.371593
v -1.550265 3.843839 -3.371593
v -1.550265 4.666984 4.104508
v 1.550265 4.666984 4.104508
v -1.550265 3.843839 3.904029
v 1.550265 3.843839 3.904029
v -4.733177 0.238408 3.761661
v -4.751688 4.666984 3.761661
v 4.751688 4.666984 3.761661
v 4.733177 0.238408 3.761661
v -4.733177 0.238408 -3.453974
v -4.751688 4.666984 -3.472486
v 4.751688 4.666984 -3.472486
v 4.733177 0.238408 -3.453974
v -1.632062 4.666984 3.761661
v 1.632062 4.666984 3.761661
v 1.550265 0.219897 3.761661
v -1.550265 0.219897 3.761661
v 1.550265 4.666984 -3.514282
v -1.550265 4.666984 -3.514282
v 1.550265 0.219897 -3.472486
v -1.550265 0.219897 -3.472486
v -4.751688 3.843839 3.761661
v 4.751688 3.843839 3.761661
v -4.751688 3.843839 -3.472486
v 4.751688 3.843839 -3.472486
v -1.632062 3.774999 3.761661
v 1.632062 3.774999 3.761661
v 1.550265 3.843839 -3.514282
v -1.550265 3.843839 -3.514282
v -1.632062 4.666984 4.205401
v 1.632062 4.666984 4.205401
v -1.632062 3.774999 3.986410
v 1.632062 3.774999 3.986410
vn -1.0000 0.0000 0.0000
vn 0.0000 0.0000 1.0000
vn 0.0000 1.0000 0.0000
vn 1.0000 0.0000 0.0000
vn 0.0000 0.0000 -1.0000
vn 0.0000 0.2366 -0.9716
vn -0.0131 0.0000 -0.9999
vn 0.0058 -1.0000 0.0000
vn -1.0000 -0.0051 0.0000
vn -0.0058 -1.0000 0.0000
vn 0.0000 -1.0000 0.0000
vn 0.0131 0.0000 -0.9999
vn 0.0000 -0.0115 -0.9999
vn 0.0095 -0.0084 -0.9999
vn -0.0095 -0.0084 -0.9999
vn 1.0000 -0.0051 0.0000
vn 0.0000 -0.2384 0.9712
usemtl FFFFFF
s off
f 34//1 19//1 23//1 36//1
f 40//2 30//2 22//2 35//2
f 27//3 20//3 24//3 31//3
f 33//4 17//4 21//4 35//4
f 38//5 26//5 19//5 34//5
f 33//5 18//5 25//5 37//5
f 37//4 25//4 41//4 43//4
f 17//3 28//3 32//3 21//3
f 28//3 27//3 31//3 32//3
f 36//2 23//2 29//2 39//2
f 39//2 29//2 30//2 40//2
f 31//2 39//2 40//2 32//2
f 24//2 36//2 39//2 31//2
f 28//5 37//5 38//5 27//5
f 17//5 33//5 37//5 28//5
f 27//5 38//5 34//5 20//5
f 18//4 33//4 35//4 22//4
f 32//2 40//2 35//2 21//2
f 20//1 34//1 36//1 24//1
f 43//6 41//6 42//6 44//6
f 26//1 38//1 44//1 42//1
f 38//3 37//3 43//3 44//3
f 62//4 64//4 51//4 47//4
f 68//7 63//7 50//7 58//7
f 55//8 59//8 52//8 48//8
f 61//9 63//9 49//9 45//9
f 66//2 62//2 47//2 54//2
f 61//2 65//2 53//2 46//2
f 65//1 71//1 69//1 53//1
f 45//10 49//10 60//10 56//10
f 56//11 60//11 59//11 55//11
f 64//12 67//12 57//12 51//12
f 67//5 68//5 58//5 57//5
f 59//13 60//13 68//13 67//13
f 52//14 59//14 67//14 64//14
f 56//2 55//2 66//2 65//2
f 45//2 56//2 65//2 61//2
f 55//2 48//2 62//2 66//2
f 46//1 50//1 63//1 61//1
f 60//15 49//15 63//15 68//15
f 48//16 52//16 64//16 62//16
f 71//17 72//17 70//17 69//17
f 54//4 70//4 72//4 66//4
f 66//11 72//11 71//11 65//11
f 19//3 26//3 54//3 47//3
f 22//3 30//3 58//3 50//3
f 23//3 19//3 47//3 51//3
f 18//3 22//3 50//3 46//3
f 25//3 18//3 46//3 53//3
f 29//3 23//3 51//3 57//3
f 30//3 29//3 57//3 58//3
f 42//3 41//3 69//3 70//3
f 41//3 25//3 53//3 69//3
f 26//3 42//3 70//3 54//3
usemtl 00BCD4
f 2//11 4//11 3//11 1//11
f 3//2 8//2 9//2 10//2
f 4//4 7//4 8//4 3//4
f 2//5 6//5 7//5 4//5
f 1//1 5//1 6//1 2//1
f 11//3 10//3 14//3 15//3
f 8//2 5//2 12//2 9//2
f 5//2 1//2 11//2 12//2
f 1//2 3//2 10//2 11//2
f 14//2 13//2 16//2 15//2
f 12//4 11//4 15//4 16//4
f 9//11 12//11 16//11 13//11
f 8//3 7//3 6//3 5//3
f 10//1 9//1 13//1 14//1
