# Blender v2.78 (sub 0) OBJ File: '7.blend'
# www.blender.org
mtllib Storage_01.mtl
o Storage_Cabinet_01_Cube.034
v -4.650796 10.152532 3.654169
v -4.650796 14.498726 3.654169
v 4.650796 14.498726 3.654169
v 4.650796 10.152532 3.654169
v -4.650796 10.152532 -3.371593
v -4.650796 14.498726 -3.371593
v 4.650796 14.498726 -3.371593
v 4.650796 10.152532 -3.371593
v -1.550265 14.498726 3.654169
v 1.550265 14.498726 3.654169
v 1.550265 10.152532 3.654169
v -1.550265 10.152532 3.654169
v 1.550265 14.498726 -3.371593
v -1.550265 14.498726 -3.371593
v 1.550265 10.152532 -3.371593
v -1.550265 10.152532 -3.371593
v -4.650796 13.675581 3.654169
v 4.650796 13.675581 3.654169
v -4.650796 13.675581 -3.371593
v 4.650796 13.675581 -3.371593
v -1.550265 13.675581 3.654169
v 1.550265 13.675581 3.654169
v 1.550265 13.675581 -3.371593
v -1.550265 13.675581 -3.371593
v -1.550265 14.498726 4.104508
v 1.550265 14.498726 4.104508
v -1.550265 13.675581 3.904029
v 1.550265 13.675581 3.904029
v -4.733177 10.070150 3.761661
v -4.751688 14.498726 3.761661
v 4.751688 14.498726 3.761661
v 4.733177 10.070150 3.761661
v -4.733177 10.070150 -3.453974
v -4.751688 14.498726 -3.472486
v 4.751688 14.498726 -3.472486
v 4.733177 10.070150 -3.453974
v -1.632062 14.498726 3.761661
v 1.632062 14.498726 3.761661
v 1.550265 10.051639 3.761661
v -1.550265 10.051639 3.761661
v 1.550265 14.498726 -3.514282
v -1.550265 14.498726 -3.514282
v 1.550265 10.051639 -3.472486
v -1.550265 10.051639 -3.472486
v -4.751688 13.675581 3.761661
v 4.751688 13.675581 3.761661
v -4.751688 13.675581 -3.472486
v 4.751688 13.675581 -3.472486
v -1.632062 13.606741 3.761661
v 1.632062 13.606741 3.761661
v 1.550265 13.675581 -3.514282
v -1.550265 13.675581 -3.514282
v -1.632062 14.498726 4.205401
v 1.632062 14.498726 4.205401
v -1.632062 13.606741 3.986410
v 1.632062 13.606741 3.986410
v -4.650796 5.253370 3.654169
v -4.650796 9.599565 3.654169
v 4.650796 9.599565 3.654169
v 4.650796 5.253370 3.654169
v -4.650796 5.253370 -3.371593
v -4.650796 9.599565 -3.371593
v 4.650796 9.599565 -3.371593
v 4.650796 5.253370 -3.371593
v -1.550265 9.599565 3.654169
v 1.550265 9.599565 3.654169
v 1.550265 5.253370 3.654169
v -1.550265 5.253370 3.654169
v 1.550265 9.599565 -3.371593
v -1.550265 9.599565 -3.371593
v 1.550265 5.253370 -3.371593
v -1.550265 5.253370 -3.371593
v -4.650796 8.776421 3.654169
v 4.650796 8.776421 3.654169
v -4.650796 8.776421 -3.371593
v 4.650796 8.776421 -3.371593
v -1.550265 8.776421 3.654169
v 1.550265 8.776421 3.654169
v 1.550265 8.776421 -3.371593
v -1.550265 8.776421 -3.371593
v -1.550265 9.599565 4.104508
v 1.550265 9.599565 4.104508
v -1.550265 8.776421 3.904029
v 1.550265 8.776421 3.904029
v -4.733177 5.170989 3.761661
v -4.751688 9.599565 3.761661
v 4.751688 9.599565 3.761661
v 4.733177 5.170989 3.761661
v -4.733177 5.170989 -3.453974
v -4.751688 9.599565 -3.472486
v 4.751688 9.599565 -3.472486
v 4.733177 5.170989 -3.453974
v -1.632062 9.599565 3.761661
v 1.632062 9.599565 3.761661
v 1.550265 5.152478 3.761661
v -1.550265 5.152478 3.761661
v 1.550265 9.599565 -3.514282
v -1.550265 9.599565 -3.514282
v 1.550265 5.152478 -3.472486
v -1.550265 5.152478 -3.472486
v -4.751688 8.776421 3.761661
v 4.751688 8.776421 3.761661
v -4.751688 8.776421 -3.472486
v 4.751688 8.776421 -3.472486
v -1.632062 8.707580 3.761661
v 1.632062 8.707580 3.761661
v 1.550265 8.776421 -3.514282
v -1.550265 8.776421 -3.514282
v -1.632062 9.599565 4.205401
v 1.632062 9.599565 4.205401
v -1.632062 8.707580 3.986410
v 1.632062 8.707580 3.986410
v -4.650796 0.333410 3.654169
v -4.650796 4.679605 3.654169
v 4.650796 4.679605 3.654169
v 4.650796 0.333410 3.654169
v -4.650796 0.333410 -3.371593
v -4.650796 4.679605 -3.371593
v 4.650796 4.679605 -3.371593
v 4.650796 0.333410 -3.371593
v -1.550265 4.679605 3.654169
v 1.550265 4.679605 3.654169
v 1.550265 0.333410 3.654169
v -1.550265 0.333410 3.654169
v 1.550265 4.679605 -3.371593
v -1.550265 4.679605 -3.371593
v 1.550265 0.333410 -3.371593
v -1.550265 0.333410 -3.371593
v -4.650796 3.856460 3.654169
v 4.650796 3.856460 3.654169
v -4.650796 3.856460 -3.371593
v 4.650796 3.856460 -3.371593
v -1.550265 3.856460 3.654169
v 1.550265 3.856460 3.654169
v 1.550265 3.856460 -3.371593
v -1.550265 3.856460 -3.371593
v -1.550265 4.679605 4.104508
v 1.550265 4.679605 4.104508
v -1.550265 3.856460 3.904029
v 1.550265 3.856460 3.904029
v -4.733177 0.251028 3.761661
v -4.751688 4.679605 3.761661
v 4.751688 4.679605 3.761661
v 4.733177 0.251028 3.761661
v -4.733177 0.251028 -3.453974
v -4.751688 4.679605 -3.472486
v 4.751688 4.679605 -3.472486
v 4.733177 0.251028 -3.453974
v -1.632062 4.679605 3.761661
v 1.632062 4.679605 3.761661
v 1.550265 0.232517 3.761661
v -1.550265 0.232517 3.761661
v 1.550265 4.679605 -3.514282
v -1.550265 4.679605 -3.514282
v 1.550265 0.232517 -3.472486
v -1.550265 0.232517 -3.472486
v -4.751688 3.856460 3.761661
v 4.751688 3.856460 3.761661
v -4.751688 3.856460 -3.472486
v 4.751688 3.856460 -3.472486
v -1.632062 3.787619 3.761661
v 1.632062 3.787619 3.761661
v 1.550265 3.856460 -3.514282
v -1.550265 3.856460 -3.514282
v -1.632062 4.679605 4.205401
v 1.632062 4.679605 4.205401
v -1.632062 3.787619 3.986410
v 1.632062 3.787619 3.986410
v -4.968674 0.020519 3.658674
v -4.968674 14.786649 3.658674
v -4.968674 0.020519 -3.658674
v -4.968674 14.786649 -3.658674
v 4.968674 0.020519 3.658674
v 4.968674 14.786649 3.658674
v 4.968674 0.020519 -3.658674
v 4.968674 14.786649 -3.658674
v -4.968674 4.942563 3.658674
v -4.968674 9.864606 3.658674
v -4.968674 9.864606 -3.658674
v -4.968674 4.942562 -3.658674
v 4.968674 9.864606 -3.658674
v 4.968674 4.942562 -3.658674
v 4.968674 9.864606 3.658674
v 4.968674 4.942562 3.658674
v 4.722593 4.725173 3.658674
v 4.722593 0.237909 3.658674
v -4.722593 0.237909 3.658674
v -4.722593 4.725173 3.658674
v -4.722593 5.159952 3.658674
v -4.722593 9.647219 3.658674
v 4.722593 9.647219 3.658674
v 4.722593 5.159952 3.658674
v -4.722593 10.081992 3.658674
v -4.722593 14.569263 3.658674
v 4.722593 14.569263 3.658674
v 4.722593 10.081992 3.658674
v 4.722593 4.725173 -3.461131
v 4.722593 0.237909 -3.461131
v -4.722593 0.237909 -3.461131
v -4.722593 4.725173 -3.461131
v -4.722593 5.159952 -3.461131
v -4.722593 9.647219 -3.461131
v 4.722593 9.647219 -3.461131
v 4.722593 5.159952 -3.461131
v -4.722593 10.081992 -3.461131
v -4.722593 14.569263 -3.461131
v 4.722593 14.569263 -3.461131
v 4.722593 10.081992 -3.461131
vn -1.0000 0.0000 0.0000
vn 0.0000 0.0000 -1.0000
vn 1.0000 0.0000 0.0000
vn 0.0000 0.0000 1.0000
vn 0.0000 -1.0000 0.0000
vn 0.0000 1.0000 0.0000
vn 0.0000 0.2366 -0.9716
vn -0.0131 0.0000 -0.9999
vn 0.0058 -1.0000 0.0000
vn -1.0000 -0.0051 0.0000
vn -0.0058 -1.0000 0.0000
vn 0.0131 0.0000 -0.9999
vn 0.0000 -0.0115 -0.9999
vn 0.0095 -0.0084 -0.9999
vn -0.0095 -0.0084 -0.9999
vn 1.0000 -0.0051 0.0000
vn 0.0000 -0.2384 0.9712
usemtl 00BCD4
s off
f 178//1 170//1 172//1 179//1
f 179//2 172//2 176//2 181//2
f 181//3 176//3 174//3 183//3
f 174//4 170//4 194//4 195//4
f 171//5 175//5 173//5 169//5
f 176//6 172//6 170//6 174//6
f 173//4 184//4 185//4 186//4
f 184//4 183//4 191//4 192//4
f 175//3 182//3 184//3 173//3
f 182//3 181//3 183//3 184//3
f 171//2 180//2 182//2 175//2
f 180//2 179//2 181//2 182//2
f 169//1 177//1 180//1 171//1
f 177//1 178//1 179//1 180//1
f 187//6 186//6 198//6 199//6
f 184//4 177//4 188//4 185//4
f 177//4 169//4 187//4 188//4
f 169//4 173//4 186//4 187//4
f 196//1 195//1 207//1 208//1
f 178//4 177//4 189//4 190//4
f 177//4 184//4 192//4 189//4
f 183//4 178//4 190//4 191//4
f 191//5 190//5 202//5 203//5
f 183//4 174//4 195//4 196//4
f 170//4 178//4 193//4 194//4
f 178//4 183//4 196//4 193//4
f 198//4 197//4 200//4 199//4
f 204//4 203//4 202//4 201//4
f 208//4 207//4 206//4 205//4
f 190//3 189//3 201//3 202//3
f 193//6 196//6 208//6 205//6
f 188//3 187//3 199//3 200//3
f 192//1 191//1 203//1 204//1
f 194//3 193//3 205//3 206//3
f 185//5 188//5 200//5 197//5
f 189//6 192//6 204//6 201//6
f 195//5 194//5 206//5 207//5
f 186//1 185//1 197//1 198//1
usemtl FFFFFF
f 18//1 3//1 7//1 20//1
f 24//4 14//4 6//4 19//4
f 11//6 4//6 8//6 15//6
f 17//3 1//3 5//3 19//3
f 22//2 10//2 3//2 18//2
f 17//2 2//2 9//2 21//2
f 21//3 9//3 25//3 27//3
f 1//6 12//6 16//6 5//6
f 12//6 11//6 15//6 16//6
f 20//4 7//4 13//4 23//4
f 23//4 13//4 14//4 24//4
f 15//4 23//4 24//4 16//4
f 8//4 20//4 23//4 15//4
f 12//2 21//2 22//2 11//2
f 1//2 17//2 21//2 12//2
f 11//2 22//2 18//2 4//2
f 2//3 17//3 19//3 6//3
f 16//4 24//4 19//4 5//4
f 4//1 18//1 20//1 8//1
f 27//7 25//7 26//7 28//7
f 10//1 22//1 28//1 26//1
f 22//6 21//6 27//6 28//6
f 46//3 48//3 35//3 31//3
f 52//8 47//8 34//8 42//8
f 39//9 43//9 36//9 32//9
f 45//10 47//10 33//10 29//10
f 50//4 46//4 31//4 38//4
f 45//4 49//4 37//4 30//4
f 49//1 55//1 53//1 37//1
f 29//11 33//11 44//11 40//11
f 40//5 44//5 43//5 39//5
f 48//12 51//12 41//12 35//12
f 51//2 52//2 42//2 41//2
f 43//13 44//13 52//13 51//13
f 36//14 43//14 51//14 48//14
f 40//4 39//4 50//4 49//4
f 29//4 40//4 49//4 45//4
f 39//4 32//4 46//4 50//4
f 30//1 34//1 47//1 45//1
f 44//15 33//15 47//15 52//15
f 32//16 36//16 48//16 46//16
f 55//17 56//17 54//17 53//17
f 38//3 54//3 56//3 50//3
f 50//5 56//5 55//5 49//5
f 3//6 10//6 38//6 31//6
f 6//6 14//6 42//6 34//6
f 7//6 3//6 31//6 35//6
f 2//6 6//6 34//6 30//6
f 9//6 2//6 30//6 37//6
f 13//6 7//6 35//6 41//6
f 14//6 13//6 41//6 42//6
f 26//6 25//6 53//6 54//6
f 25//6 9//6 37//6 53//6
f 10//6 26//6 54//6 38//6
f 74//1 59//1 63//1 76//1
f 80//4 70//4 62//4 75//4
f 67//6 60//6 64//6 71//6
f 73//3 57//3 61//3 75//3
f 78//2 66//2 59//2 74//2
f 73//2 58//2 65//2 77//2
f 77//3 65//3 81//3 83//3
f 57//6 68//6 72//6 61//6
f 68//6 67//6 71//6 72//6
f 76//4 63//4 69//4 79//4
f 79//4 69//4 70//4 80//4
f 71//4 79//4 80//4 72//4
f 64//4 76//4 79//4 71//4
f 68//2 77//2 78//2 67//2
f 57//2 73//2 77//2 68//2
f 67//2 78//2 74//2 60//2
f 58//3 73//3 75//3 62//3
f 72//4 80//4 75//4 61//4
f 60//1 74//1 76//1 64//1
f 83//7 81//7 82//7 84//7
f 66//1 78//1 84//1 82//1
f 78//6 77//6 83//6 84//6
f 102//3 104//3 91//3 87//3
f 108//8 103//8 90//8 98//8
f 95//9 99//9 92//9 88//9
f 101//10 103//10 89//10 85//10
f 106//4 102//4 87//4 94//4
f 101//4 105//4 93//4 86//4
f 105//1 111//1 109//1 93//1
f 85//11 89//11 100//11 96//11
f 96//5 100//5 99//5 95//5
f 104//12 107//12 97//12 91//12
f 107//2 108//2 98//2 97//2
f 99//13 100//13 108//13 107//13
f 92//14 99//14 107//14 104//14
f 96//4 95//4 106//4 105//4
f 85//4 96//4 105//4 101//4
f 95//4 88//4 102//4 106//4
f 86//1 90//1 103//1 101//1
f 100//15 89//15 103//15 108//15
f 88//16 92//16 104//16 102//16
f 111//17 112//17 110//17 109//17
f 94//3 110//3 112//3 106//3
f 106//5 112//5 111//5 105//5
f 59//6 66//6 94//6 87//6
f 62//6 70//6 98//6 90//6
f 63//6 59//6 87//6 91//6
f 58//6 62//6 90//6 86//6
f 65//6 58//6 86//6 93//6
f 69//6 63//6 91//6 97//6
f 70//6 69//6 97//6 98//6
f 82//6 81//6 109//6 110//6
f 81//6 65//6 93//6 109//6
f 66//6 82//6 110//6 94//6
f 130//1 115//1 119//1 132//1
f 136//4 126//4 118//4 131//4
f 123//6 116//6 120//6 127//6
f 129//3 113//3 117//3 131//3
f 134//2 122//2 115//2 130//2
f 129//2 114//2 121//2 133//2
f 133//3 121//3 137//3 139//3
f 113//6 124//6 128//6 117//6
f 124//6 123//6 127//6 128//6
f 132//4 119//4 125//4 135//4
f 135//4 125//4 126//4 136//4
f 127//4 135//4 136//4 128//4
f 120//4 132//4 135//4 127//4
f 124//2 133//2 134//2 123//2
f 113//2 129//2 133//2 124//2
f 123//2 134//2 130//2 116//2
f 114//3 129//3 131//3 118//3
f 128//4 136//4 131//4 117//4
f 116//1 130//1 132//1 120//1
f 139//7 137//7 138//7 140//7
f 122//1 134//1 140//1 138//1
f 134//6 133//6 139//6 140//6
f 158//3 160//3 147//3 143//3
f 164//8 159//8 146//8 154//8
f 151//9 155//9 148//9 144//9
f 157//10 159//10 145//10 141//10
f 162//4 158//4 143//4 150//4
f 157//4 161//4 149//4 142//4
f 161//1 167//1 165//1 149//1
f 141//11 145//11 156//11 152//11
f 152//5 156//5 155//5 151//5
f 160//12 163//12 153//12 147//12
f 163//2 164//2 154//2 153//2
f 155//13 156//13 164//13 163//13
f 148//14 155//14 163//14 160//14
f 152//4 151//4 162//4 161//4
f 141//4 152//4 161//4 157//4
f 151//4 144//4 158//4 162//4
f 142//1 146//1 159//1 157//1
f 156//15 145//15 159//15 164//15
f 144//16 148//16 160//16 158//16
f 167//17 168//17 166//17 165//17
f 150//3 166//3 168//3 162//3
f 162//5 168//5 167//5 161//5
f 115//6 122//6 150//6 143//6
f 118//6 126//6 154//6 146//6
f 119//6 115//6 143//6 147//6
f 114//6 118//6 146//6 142//6
f 121//6 114//6 142//6 149//6
f 125//6 119//6 147//6 153//6
f 126//6 125//6 153//6 154//6
f 138//6 137//6 165//6 166//6
f 137//6 121//6 149//6 165//6
f 122//6 138//6 166//6 150//6
